<svg width="18" height="20" viewBox="0 0 18 20" fill="none" xmlns="http://www.w3.org/2000/svg">
<path d="M17.7661 15.0434C17.7112 15.1352 17.6386 15.2153 17.5527 15.279C17.4668 15.3427 17.3691 15.3887 17.2653 15.4146C17.1615 15.4405 17.0536 15.4456 16.9478 15.4296C16.8421 15.4137 16.7405 15.377 16.6489 15.3217L9.75687 11.1851V18.6875C9.75687 18.903 9.67127 19.1097 9.5189 19.262C9.36652 19.4144 9.15986 19.5 8.94437 19.5C8.72888 19.5 8.52222 19.4144 8.36985 19.262C8.21747 19.1097 8.13187 18.903 8.13187 18.6875V11.1851L1.23781 15.3217C1.14628 15.3779 1.0445 15.4155 0.938379 15.4321C0.832253 15.4488 0.72388 15.4442 0.619531 15.4187C0.515182 15.3932 0.416928 15.3472 0.330453 15.2835C0.243979 15.2197 0.171001 15.1395 0.115742 15.0474C0.0604834 14.9553 0.0240406 14.8531 0.00852241 14.7468C-0.00699579 14.6405 -0.00128108 14.5322 0.0253353 14.4281C0.0519517 14.324 0.0989415 14.2263 0.163586 14.1405C0.228231 14.0547 0.309247 13.9826 0.401948 13.9283L7.36507 9.75L0.401948 5.57172C0.309247 5.51744 0.228231 5.44531 0.163586 5.35952C0.0989415 5.27372 0.0519517 5.17596 0.0253353 5.07189C-0.00128108 4.96782 -0.00699579 4.8595 0.00852241 4.7532C0.0240406 4.64691 0.0604834 4.54474 0.115742 4.45262C0.171001 4.3605 0.243979 4.28025 0.330453 4.21652C0.416928 4.15279 0.515182 4.10683 0.619531 4.08132C0.72388 4.05581 0.832253 4.05124 0.938379 4.06789C1.0445 4.08453 1.14628 4.12205 1.23781 4.17828L8.13187 8.31492V0.8125C8.13187 0.597012 8.21747 0.390349 8.36985 0.237976C8.52222 0.0856026 8.72888 0 8.94437 0C9.15986 0 9.36652 0.0856026 9.5189 0.237976C9.67127 0.390349 9.75687 0.597012 9.75687 0.8125V8.31492L16.6509 4.17828C16.7425 4.12205 16.8442 4.08453 16.9504 4.06789C17.0565 4.05124 17.1649 4.05581 17.2692 4.08132C17.3736 4.10683 17.4718 4.15279 17.5583 4.21652C17.6448 4.28025 17.7177 4.3605 17.773 4.45262C17.8283 4.54474 17.8647 4.64691 17.8802 4.7532C17.8957 4.8595 17.89 4.96782 17.8634 5.07189C17.8368 5.17596 17.7898 5.27372 17.7252 5.35952C17.6605 5.44531 17.5795 5.51744 17.4868 5.57172L10.5237 9.75L17.4868 13.9283C17.5784 13.9831 17.6583 14.0555 17.7219 14.1412C17.7855 14.227 17.8316 14.3244 17.8576 14.428C17.8835 14.5315 17.8888 14.6392 17.8731 14.7448C17.8574 14.8504 17.821 14.9519 17.7661 15.0434Z" fill="white"/>
</svg>
