<svg width="21" height="21" viewBox="0 0 21 21" fill="none" xmlns="http://www.w3.org/2000/svg">
<path d="M20.2963 1.53841C20.2722 1.14224 20.104 0.768584 19.8233 0.487934C19.5427 0.207284 19.169 0.0390502 18.7728 0.0149748C17.4952 -0.061197 14.2299 0.0555997 11.5202 2.76427L11.0378 3.25279H5.11369C4.89947 3.25158 4.68715 3.29298 4.48908 3.37458C4.29101 3.45618 4.11114 3.57635 3.95994 3.7281L0.476343 7.21373C0.262704 7.42722 0.112792 7.69603 0.043431 7.98998C-0.0259297 8.28394 -0.0119942 8.59141 0.0836737 8.87789C0.179342 9.16436 0.352956 9.41851 0.585032 9.6118C0.817107 9.80509 1.09846 9.92988 1.39751 9.97216L5.30462 10.5176L9.7947 15.0076L10.3401 18.9168C10.382 19.2158 10.5068 19.4972 10.7003 19.7291C10.8937 19.961 11.1482 20.1341 11.4349 20.229C11.6019 20.2847 11.7768 20.3132 11.9529 20.3133C12.1661 20.3137 12.3773 20.2719 12.5742 20.1903C12.7712 20.1087 12.9501 19.989 13.1006 19.8379L16.5862 16.3544C16.7379 16.2031 16.8581 16.0233 16.9397 15.8252C17.0213 15.6271 17.0627 15.4148 17.0615 15.2006V9.27646L17.546 8.79201C20.2556 6.08232 20.3724 2.81708 20.2963 1.53841ZM5.11369 4.87779H9.41283L5.39806 8.89154L1.624 8.36544L5.11369 4.87779ZM12.671 3.91802C13.4517 3.13247 14.3911 2.52256 15.4263 2.12902C16.4616 1.73547 17.5689 1.56736 18.6743 1.63591C18.7455 2.74191 18.5791 3.85033 18.1864 4.88669C17.7936 5.92305 17.1836 6.86333 16.3973 7.64435L10.5615 13.4781L6.83619 9.75279L12.671 3.91802ZM15.4365 15.2006L11.9499 18.6903L11.4227 14.9152L15.4365 10.9015V15.2006ZM7.90462 16.1654C7.44759 17.1669 5.91908 19.5028 1.624 19.5028C1.40851 19.5028 1.20185 19.4172 1.04947 19.2648C0.897101 19.1124 0.811499 18.9058 0.811499 18.6903C0.811499 14.3952 3.14744 12.8667 4.14884 12.4086C4.24594 12.3644 4.35081 12.3396 4.45746 12.3359C4.56411 12.3321 4.67045 12.3494 4.77042 12.3868C4.87039 12.4241 4.96202 12.4808 5.04009 12.5536C5.11815 12.6263 5.18113 12.7137 5.22541 12.8108C5.26969 12.9079 5.29441 13.0128 5.29816 13.1194C5.30191 13.2261 5.28462 13.3324 5.24727 13.4324C5.20993 13.5324 5.15326 13.624 5.0805 13.7021C5.00774 13.7801 4.92031 13.8431 4.82322 13.8874C4.17017 14.185 2.729 15.1427 2.47509 17.8392C5.17158 17.5853 6.13134 16.1441 6.42689 15.4911C6.47117 15.394 6.53414 15.3066 6.61221 15.2338C6.69027 15.161 6.78191 15.1044 6.88188 15.067C6.98184 15.0297 7.08819 15.0124 7.19484 15.0161C7.30149 15.0199 7.40636 15.0446 7.50345 15.0889C7.60055 15.1332 7.68797 15.1961 7.76073 15.2742C7.83349 15.3523 7.89016 15.4439 7.92751 15.5439C7.96486 15.6438 7.98215 15.7502 7.97839 15.8568C7.97464 15.9635 7.94992 16.0683 7.90564 16.1654H7.90462Z" fill="white"/>
</svg>
